<svg xmlns="http://www.w3.org/2000/svg" viewBox="0 0 224.38 284.68"><defs><style>.cls-1{fill:#231f20;}.cls-2{fill:#010101;}</style></defs><title>Fichier 2</title><g id="Calque_2" data-name="Calque 2"><g id="Calque_1-2" data-name="Calque 1"><path class="cls-1" d="M73.66,72.8a2,2,0,0,1,.57-1.3c.94-1.29,1.7-2.16,2.84-2.16a1.87,1.87,0,0,1,1.33.43,4.91,4.91,0,0,1,2.09,4.32,12.92,12.92,0,0,1-.76,3.46c-1.33,3.89-4.75,5.62-6.26,7.56s-5.32,2.59-8.93,2.59c-3.22,0-7.78-2.59-9.68-5a16.75,16.75,0,0,1-4-9.72c-.19-2.37-.38-3.67-.38-5a13.35,13.35,0,0,1,.57-3.46c.94-3.46,4-7.56,6.45-9.72s4.56-4.75,8-5.62a25.24,25.24,0,0,1,7-1.08,21.05,21.05,0,0,1,3.6.43c3.61.87,5.13.65,7.41,1.3s5.31,3.67,7.21,5.4S97,62.65,97,75.39c0,8.86-3,16-9.5,22.68a23.84,23.84,0,0,1-15.37,6.48c-4,0-9.11-1.94-11.58-1.94a12.44,12.44,0,0,1-6.65-1.51C52.2,100,47.84,100,44.42,97.42S37,93.54,33.6,91.81a43.87,43.87,0,0,0-9.87-3.46,14.59,14.59,0,0,0-1.52-.21C18,88.14,9.3,90.08,6.26,95.7a10.06,10.06,0,0,0-1.51,4.53c0,2.38,1.7,3.24,1.7,6,0,2.59-1.32,3-2.84,3S0,107.15,0,102.18,4,91.59,7.78,89.86s4.56-4.32,9.87-5.18a69.9,69.9,0,0,1,8.93-1.08,4.72,4.72,0,0,1,2.84.65c1.52,1.08,5.51,1.94,10.07,4.75s5.69,3.46,8,4.1,2.85,2.38,7.21,3.46,4.37,1.73,8.17,2.59a50.94,50.94,0,0,0,9.49.87c3.22,0,6.45-.22,8.54-1.08,4.56-1.73,8.92-7.35,11-13a30.67,30.67,0,0,0,1.71-10.37c0-1.3-.19-2.81-.19-4.54a18.67,18.67,0,0,0-3.61-9.72C88.27,59,86,57.24,83.34,55.3a18.72,18.72,0,0,0-9.49-2.81,11.06,11.06,0,0,0-6.27,1.73c-5.31,3.46-7.21,1.73-9.49,7.13-1.9,4.32-2.85,6.91-2.85,10.37a11.9,11.9,0,0,0,.19,2.59c.57,5,4.37,9.5,7.41,9.94a8.29,8.29,0,0,0,2.27.21c5.89,0,9.31-3.89,9.31-6.91S73.66,73.66,73.66,72.8ZM31.51,81.44a29.35,29.35,0,0,0-5.5-1.3c-2.28-.21-4.37-2.59-6.84-3.89a6.48,6.48,0,0,1-3.6-5.83c0-1.94,2.08-3,3.79-3a2.21,2.21,0,0,1,1.14.21c1.71.65,2.47,2.38,4.18,5.19S29.42,79.71,31.51,81.44ZM42,83.17c-3.41-2.6-7-2.6-8.73-6.27S29.8,70.64,29.8,67c0-2.6.95-6,3.23-7.78a5.57,5.57,0,0,1,3.23-1.3c1.52,0,2.66,1.08,3.8,3,1.89,3.45,1.7,6,2.08,10.15s2.66,6.48,4.18,8.64,4,3.46,5.32,4.32c.75.65,2.27,2.59,2.27,3.67,0,.44-.19.65-.57.65A36,36,0,0,1,42,83.17Zm60.94-13.4c-2.47-4.75-3.61-6-4.94-11.45s-.75-6.26-1.51-11.23a15.05,15.05,0,0,1-.19-2.81c0-2.59.76-4.75,2.27-8.85,0-.22.19-.43,4.94-13.18,1.33-5.83,2.47-6.7,3.42-9.72s1.33-7.35,2.27-9.51,2.09-3,3-3c.76,0,2.09.86,3,3s1.33,6.48,2.28,9.51.95,5,3.41,9.72c2.28,4.54,1.9,3.89,4.37,10.15A35.44,35.44,0,0,1,128,45.15a23.82,23.82,0,0,1-.19,3.67c-.76,5,0,4.1-1.33,9.5S124,65,121.49,69.77s-7.21,18.8-9.11,18.8C110.67,88.57,105.36,74.53,102.89,69.77ZM109.72,102a8,8,0,0,0,2.28.22,7.84,7.84,0,0,0,4.37-1.08c-.38.21,3.8-1.95,5.31-1.95a.64.64,0,0,1,.57.22c0,1.08-2.27,4.1-4,6a9.88,9.88,0,0,1-6.65,3.24c-2.09,0-4.74-1.73-6.45-3.46-1.33-1.08-3.8-3.89-3.8-5a.44.44,0,0,1,.38-.43,1.59,1.59,0,0,1,1.14-.65,2.39,2.39,0,0,1,1.33.65A15.86,15.86,0,0,0,109.72,102ZM120,62.43c.94-4.75,1.7-6.91,1.7-11.67,0-5-1-6.48-1.51-10.36-.76-5.84-1.71-5.19-1.71-8.86,0-4.54-.95-3.89-2.47-9.29s-3.23-9.72-4-14c-.76,4.32-1.9,6.26-3.41,11.66S106.5,27,105.93,31.54c-.57,4.32-1.71,4.54-1.71,9.5,0,3.68-1.52,5-1.52,9.72a67.57,67.57,0,0,0,1.14,12.32c.38,2.16,6.26,15.33,8,15.33.19,0,.38,0,.38-.43,0-1.51-1.71-6.26-1.9-9.72-.19-3.24-1-5.61-1-7.56a6.38,6.38,0,0,1,.57-2.59,8.31,8.31,0,0,0,.76-4.11V50.12c0-2.38-.76-5.19-.76-7.78a6.7,6.7,0,0,1,.19-1.94c.76-3.24,0-8.65,1.14-11,.38-.65.57-1.08,1-1.08.57,0,1.14,1.51,1.14,4.1,0,3-1,6.7-1,10.59a16.13,16.13,0,0,0,.19,3c.57,4.32,1,5.62,1,8.43v1.94c-.19,4.32-.76,5.4-1,10.59,0,3.88,1.14,8.2,1.14,11.44C114.47,79.06,119,67.18,120,62.43Zm-8.93,30a21.46,21.46,0,0,0,3.23-.65c.38,0,.76-.22,1.14-.22a1.44,1.44,0,0,1,1.52,1.51c0,.22-.19.44-.19.87-.76,3.45-2.47,4.53-5.13,4.53-2.47,0-3.6-1.94-4.17-3.67a2.18,2.18,0,0,1-.19-1.08c0-1.08.38-1.94,1.33-1.94a1.28,1.28,0,0,1,.75.21A4.92,4.92,0,0,0,111.05,92.46Zm46.32-8a8.4,8.4,0,0,0,2.28-.21c3-.44,6.83-5,7.4-9.94a46.79,46.79,0,0,0,.76-6.48,15.51,15.51,0,0,0-1.51-6.48c-2.28-5.4-2.66-4.11-8-7.56-1.71-1.08-5.31-1.3-7.4-1.3a19.5,19.5,0,0,0-10.44,3.24,21.78,21.78,0,0,0-5.89,5.62c-1.71,2.59-4,6.91-4.17,11.66,0,1.08-.19,2.6-.19,3.89a30.59,30.59,0,0,0,1.71,10.37,20.82,20.82,0,0,0,11.58,11.67c2.08.86,5.31,1.08,8.54,1.08a51.12,51.12,0,0,0,9.49-.87c3.8-.86,3.8-1.51,8.16-2.59s4.94-2.81,7.22-3.46,3.41-1.29,8-4.1,8.54-3.67,10.06-4.75a4.75,4.75,0,0,1,2.85-.65,69.8,69.8,0,0,1,8.92,1.08c5.31.86,6.07,3.46,9.87,5.18s7.78,7.35,7.78,12.32-2.08,7.13-3.6,7.13-2.85-.44-2.85-3c0-2.81,1.71-3.67,1.71-6a10,10,0,0,0-1.52-4.53c-3-5.62-11.77-7.56-16-7.56a14.72,14.72,0,0,0-1.51.21,43.94,43.94,0,0,0-9.88,3.46c-3.41,1.73-7.4,3-10.82,5.61s-7.78,2.6-9.49,3.68a12.42,12.42,0,0,1-6.64,1.51c-2.47,0-7.6,1.94-12.15,1.94-4,0-13.48-3.24-17.47-7.34-6.45-6.7-7.4-11.67-7.4-20.52,0-12.75,5.88-19.66,7.78-21.39s4.94-4.75,7.22-5.4,2.84-1.08,6.45-1.94a20.23,20.23,0,0,1,3.61-.44,25.54,25.54,0,0,1,7,1.08,22.1,22.1,0,0,1,8.92,5c2.47,2.16,5.32,8,5.32,11.67s-.57,2.81-.76,6.91-2.85,8.21-4.75,10.58-6.45,5-10.06,5c-3.22-.21-7-.64-8.54-2.59s-4.94-3.67-6.26-7.56a12.92,12.92,0,0,1-.76-3.46,4.93,4.93,0,0,1,2.08-4.32,2.82,2.82,0,0,1,1.71-.64c1.14,0,1.9.86,2.47,2.37a5,5,0,0,1,.38,1.3,26.35,26.35,0,0,0-.57,4.75C148.07,80.57,151.49,84.46,157.37,84.46Zm13.1,3.46A6.73,6.73,0,0,1,172.75,84c1.33-.86,3.8-2.16,5.31-4.32s3.8-4.54,4.18-8.64.19-6.7,2.09-10.15c1.14-2,2.28-3,3.8-3a5.54,5.54,0,0,1,3.22,1.3c2.28,1.73,3.23,5.18,3.23,7.78-.38,3.67-1.33,5.18-3,8.85s-5.69,4.75-9.11,7.35a38.59,38.59,0,0,1-11,5.18C170.47,88.35,170.47,88.14,170.47,87.92Zm22.4-6.48c2.09-1.73,5.13-5.83,6.84-8.64s2.46-4.54,4.17-5.19A2.21,2.21,0,0,1,205,67.4a3.67,3.67,0,0,1,3.8,3.45c0,2.16-1.33,4.11-3.61,5.4-2.47,1.3-4.55,3.68-6.83,3.89A40,40,0,0,0,192.87,81.44Z"/><path class="cls-1" d="M31,161.75q-8,3.72-14,3.71-6.48,0-10-4.2T3.37,149.43q0-12.09,6.85-20.56t16.58-8.48a33.57,33.57,0,0,1,10.79,1.68l-2.14,8H33.87a13.67,13.67,0,0,0,.25-2.24,4.73,4.73,0,0,0-2.39-4.09,11.16,11.16,0,0,0-6.21-1.57q-5.76,0-10.08,5.92a32.57,32.57,0,0,0-4.68,9.72,36.85,36.85,0,0,0-1.81,11q0,6.26,2.85,9.86a9.44,9.44,0,0,0,7.83,3.6A26,26,0,0,0,31.5,159Z"/><path class="cls-1" d="M37.08,164.74,39,155.81l3.44-20q1.81-10.5,6.83-16.34a15.52,15.52,0,0,1,12.21-5.84,16,16,0,0,1,4.52.61l-3.44,4.15a11.27,11.27,0,0,0-5-1.54,6.57,6.57,0,0,0-6,3.35q-2,3.35-3.62,12.75l-2.72,15.75h.4a43.4,43.4,0,0,1,7.09-11.94q4-4.51,7.37-4.52,4.15,0,4.15,5.28a24.14,24.14,0,0,1-.43,4.17l-2.44,14.15a33.71,33.71,0,0,0-.57,4.35c0,1.22.49,1.82,1.48,1.82q2.52,0,7.52-6.37l-.45,2.69q-5.52,6.81-9.91,6.82-3.62,0-3.62-4.38a34.31,34.31,0,0,1,.58-4.92l2.46-14.19a17.92,17.92,0,0,0,.28-2.78c0-1.56-.51-2.35-1.51-2.35q-4.78,0-13.33,17.55l-1.81,10.34Z"/><path class="cls-1" d="M89.21,155.61l-.45,2.69q-5.51,6.81-9.88,6.82-3.63,0-3.63-4.38a33.94,33.94,0,0,1,.58-4.87l1.74-10.09a44.12,44.12,0,0,0,.7-5.71c0-1.62-.54-2.44-1.63-2.44a15.25,15.25,0,0,0-4,1l.3-1.77,12.3-4.64-1.91,9.28-2.47,14.32a36,36,0,0,0-.58,4.29c0,1.26.5,1.88,1.49,1.88Q84.21,162,89.21,155.61ZM80,127.17l1.69-3.94,7.09-5.34-2.16,5.34Z"/><path class="cls-1" d="M93.08,164.74l1.86-8.93,2.47-14.32a34.42,34.42,0,0,0,.58-4.35c0-1.2-.5-1.8-1.49-1.8q-2.46,0-7.49,6.38l.45-2.67q5.49-6.84,9.88-6.84c2.42,0,3.62,1.46,3.62,4.38a34.22,34.22,0,0,1-.57,4.91l-1.24,7.17h.36a46.43,46.43,0,0,1,7-12c2.54-3,4.89-4.46,7-4.46a3.42,3.42,0,0,1,2.83,1.54,6.26,6.26,0,0,1,1.15,3.83,23.49,23.49,0,0,1-.43,4l-1.21,7.06h.35a42.53,42.53,0,0,1,6.59-11.86c2.53-3.06,4.85-4.6,7-4.6,3,0,4.45,1.82,4.45,5.45a24.46,24.46,0,0,1-.41,4l-2.43,14.15a32.56,32.56,0,0,0-.58,4.35c0,1.22.49,1.82,1.48,1.82q2.49,0,7.49-6.37l-.45,2.7q-5.49,6.81-9.9,6.81-3.65,0-3.65-4.38a33.31,33.31,0,0,1,.61-4.92l2.45-14.13a17,17,0,0,0,.36-2.78c0-1.6-.52-2.41-1.56-2.41q-4.38,0-12.67,17.41l-1.89,10.48-4.93.35,3.95-23a18.67,18.67,0,0,0,.33-2.78c0-1.65-.51-2.47-1.51-2.47q-1.89,0-5.57,5.1a78.2,78.2,0,0,0-7.18,12.54l-1.84,10.25Z"/><path class="cls-1" d="M166.13,156.45l-.38,2.23q-8,6.44-13.63,6.44a7,7,0,0,1-5.79-2.89,11.79,11.79,0,0,1-2.23-7.45,25.07,25.07,0,0,1,5.43-15.37q5.43-7.2,11.6-7.2a4.42,4.42,0,0,1,3.62,1.74,7,7,0,0,1,1.38,4.52q0,5.55-4.93,9.55a18.11,18.11,0,0,1-11.77,4l0,1.31q0,8.46,5.38,8.46Q159.44,161.78,166.13,156.45Zm-16.65-6.21a14.87,14.87,0,0,0,8.8-3.34,9.35,9.35,0,0,0,3.17-7.32q0-4.44-2.79-4.44c-2,0-4,1.54-5.83,4.63A23.91,23.91,0,0,0,149.48,150.24Zm16.07-25.33-3.17,2.29a25.32,25.32,0,0,0-5.23-7.71l3-2.67A40.07,40.07,0,0,1,165.55,124.91Z"/><path class="cls-1" d="M174,164.74l1.87-8.92,2.43-14.16a21.07,21.07,0,0,0,.38-3.71c0-1.66-.5-2.49-1.51-2.49q-2.66,0-7.62,6.55l.46-2.58q5.81-7.22,10.08-7.22c2.41,0,3.62,1.6,3.62,4.78a27.59,27.59,0,0,1-.45,4.7l-1.21,7h.33a41.36,41.36,0,0,1,7.08-11.86q4.08-4.59,7.48-4.6a5.64,5.64,0,0,1,3.14.91l-3.34,5.24a4.45,4.45,0,0,0-2.52-1.13q-4.91,0-13.05,16.59l-1.84,10.57Z"/><path class="cls-1" d="M223,156.45l-.38,2.23q-8,6.44-13.63,6.44a7,7,0,0,1-5.79-2.89,11.79,11.79,0,0,1-2.23-7.45,25.07,25.07,0,0,1,5.43-15.37q5.43-7.2,11.59-7.2a4.39,4.39,0,0,1,3.62,1.74,7,7,0,0,1,1.39,4.52q0,5.55-4.93,9.55a18.13,18.13,0,0,1-11.77,4l0,1.31q0,8.46,5.38,8.46Q216.32,161.78,223,156.45Zm-16.65-6.21a14.87,14.87,0,0,0,8.8-3.34,9.38,9.38,0,0,0,3.17-7.32q0-4.44-2.79-4.44c-2,0-4,1.54-5.83,4.63A23.91,23.91,0,0,0,206.36,150.24Z"/><path class="cls-1" d="M56.55,189.78l1.18-1.32A2.56,2.56,0,0,0,60,190a2.2,2.2,0,0,0,1.73-.9,5.05,5.05,0,0,0,1-2.39l1.56-8.55a5.79,5.79,0,0,0-.6-.07,2.86,2.86,0,0,0-2.26,1.06,3.93,3.93,0,0,0-.91,2.63l-1.6.86a5.5,5.5,0,0,1,1.79-3.85,6,6,0,0,1,4.12-1.46h.79a41.18,41.18,0,0,0,2.24,5.07l1,2c.73,1.4,1.27,2.53,1.61,3.39l1-5.2a9,9,0,0,1,1.7-4.17A3.67,3.67,0,0,1,76.16,177a3,3,0,0,1,1.19.26l-.59,1.21a2.21,2.21,0,0,0-1.41-.63c-1.19,0-2,1.13-2.39,3.39L71.72,188l-.39,2.66-1,.4a26.85,26.85,0,0,0-1.74-3.8l-2-3.91c-.53-1-1-2-1.33-2.8L64.56,184a11.3,11.3,0,0,1-2,5.05,4.21,4.21,0,0,1-3.42,1.76A3.84,3.84,0,0,1,56.55,189.78Z"/><path class="cls-1" d="M81.4,185.73h-.15A12.37,12.37,0,0,1,79,189.42a3.61,3.61,0,0,1-2.46,1.43c-1.16,0-1.74-.8-1.74-2.38a8.36,8.36,0,0,1,1.92-5.13,5.88,5.88,0,0,1,4.83-2.61c.78,0,1.61,0,2.46.11l-.59,2.67-.8,4.45a9.29,9.29,0,0,0-.19,1.35c0,.38.16.57.49.57.55,0,1.37-.67,2.45-2l-.14.84C84,190.14,83,190.85,82,190.85c-.8,0-1.2-.46-1.2-1.36A10.2,10.2,0,0,1,81,188Zm.66-3.6a4.61,4.61,0,0,0-2-.5q-1.5,0-2.4,2.07a11.18,11.18,0,0,0-1.06,4.4c0,.94.26,1.41.76,1.41s1.15-.54,2-1.62a18.11,18.11,0,0,0,2.34-3.72Z"/><path class="cls-1" d="M86.79,190.73l.62-2.77.8-4.45a9.29,9.29,0,0,0,.19-1.35c0-.37-.16-.56-.48-.56q-.81,0-2.46,2l.15-.83c1.2-1.42,2.28-2.12,3.24-2.12.79,0,1.19.45,1.19,1.35a11.26,11.26,0,0,1-.19,1.53l-.41,2.22h.13A13.29,13.29,0,0,1,91.9,182a3.5,3.5,0,0,1,2.42-1.4c.9,0,1.35.54,1.35,1.64a7.71,7.71,0,0,1-.14,1.29l-.8,4.4a9.29,9.29,0,0,0-.19,1.35c0,.38.16.57.49.57.55,0,1.37-.67,2.46-2l-.16.83c-1.19,1.41-2.27,2.12-3.24,2.12-.79,0-1.18-.46-1.18-1.36A9.82,9.82,0,0,1,93.1,188l.8-4.41a4.36,4.36,0,0,0,.1-.86c0-.49-.16-.73-.49-.73q-1.58,0-4.37,5.45l-.6,3.21Z"/><path class="cls-1" d="M100.34,181.51H98.45l.57-.67h1.43l.47-2.55,1.71-.45-.55,3h3.11l-.67.8a15.13,15.13,0,0,0-1.89-.13H102l-1.12,6.17a8,8,0,0,0-.17,1.34c0,.47.19.71.57.71a4.3,4.3,0,0,0,2.44-1.44l-.15.83a4.43,4.43,0,0,1-3.08,1.73c-.93,0-1.4-.57-1.4-1.7a9.55,9.55,0,0,1,.18-1.6Z"/><path class="cls-1" d="M113.16,188.15l-.12.7a8,8,0,0,1-4.47,2,2.32,2.32,0,0,1-1.9-.9,3.51,3.51,0,0,1-.73-2.31,7.51,7.51,0,0,1,1.78-4.78,4.93,4.93,0,0,1,3.8-2.23,1.49,1.49,0,0,1,1.19.54,2.1,2.1,0,0,1,.45,1.4,3.66,3.66,0,0,1-1.62,3,6.17,6.17,0,0,1-3.86,1.24v.4c0,1.76.58,2.63,1.76,2.63A6.63,6.63,0,0,0,113.16,188.15Zm-5.46-1.92a5.14,5.14,0,0,0,2.89-1,2.87,2.87,0,0,0,1-2.28c0-.91-.31-1.37-.92-1.37s-1.3.47-1.91,1.43A7.23,7.23,0,0,0,107.7,186.23Z"/><path class="cls-1" d="M114,190.32l1.09-1.22a3.47,3.47,0,0,0,2.18.86,1.68,1.68,0,0,0,1.15-.4,1.18,1.18,0,0,0,.47-1,3.19,3.19,0,0,0-.93-1.75l-.75-.9a3.84,3.84,0,0,1-1.1-2.2,2.85,2.85,0,0,1,1.07-2.17,3.52,3.52,0,0,1,2.43-1,4.87,4.87,0,0,1,1.68.34l-.36,2h-.53l0-.15a1.15,1.15,0,0,0,0-.19c0-.81-.47-1.22-1.43-1.22s-1.6.47-1.6,1.41a3.46,3.46,0,0,0,1,1.89l.67.82a4,4,0,0,1,1.11,2.23A2.74,2.74,0,0,1,119,189.9a4.14,4.14,0,0,1-2.67.95A6.07,6.07,0,0,1,114,190.32Z"/><path class="cls-1" d="M128.26,185.73l.35-1.33h3.76l-.35,1.33Z"/><path class="cls-1" d="M138.77,190.62l.23-.55h.57c.51,0,.82-.08.94-.25A6.64,6.64,0,0,0,141,188l.82-4.5a10,10,0,0,0,.17-1.32q0-.41-.72-.48l-.76-.06v-.55l3.57-.49-.63,2.88-.81,4.45c-.16.95-.24,1.46-.24,1.54,0,.38.23.57.7.57h.74l0,.55Z"/><path class="cls-1" d="M149.68,184l-.16-.11a2.78,2.78,0,0,1-1.15-2.32,3.24,3.24,0,0,1,1.29-2.52,4.46,4.46,0,0,1,3-1.1,2.92,2.92,0,0,1,1.93.62,2,2,0,0,1,.75,1.59q0,1.85-3,3.65c1.38,1,2.06,2,2.06,3.06a3.53,3.53,0,0,1-1.45,2.74,4.91,4.91,0,0,1-3.26,1.23,3.32,3.32,0,0,1-2.29-.82,2.61,2.61,0,0,1-.92-2C146.48,186.59,147.54,185.26,149.68,184Zm.41.38a3.69,3.69,0,0,0-2,3.37,2.4,2.4,0,0,0,.64,1.76,2.28,2.28,0,0,0,1.71.66,2.23,2.23,0,0,0,1.68-.77,2.53,2.53,0,0,0,.71-1.8c0-.85-.68-1.76-2.06-2.73Zm1.75-.89c1.39-.94,2.09-1.93,2.09-3a1.84,1.84,0,0,0-.55-1.36,1.9,1.9,0,0,0-1.38-.54,2.08,2.08,0,0,0-1.56.68,2.39,2.39,0,0,0-.64,1.67c0,.71.5,1.42,1.49,2.13Z"/><path class="cls-1" d="M156.05,193.51a9.32,9.32,0,0,1,2-4.12l5.09-5.9.89-1.09h-6.79l.58-1.56h7.76l-.37,1q-6.78,7.89-7.24,11.44Z"/><path class="cls-1" d="M165.43,193.51a9.22,9.22,0,0,1,2-4.12l5.09-5.9.89-1.09h-6.79l.58-1.56H175l-.37,1q-6.78,7.89-7.24,11.44Z"/><path class="cls-2" d="M145.08,203.15l13.77,25.48H143.47L133,203.15Zm-19.46,0,10.52,25.48H94l10.52-25.48Zm-40.61,0H97.15L86.63,228.63H71.25ZM71.25,233.72H86.57l18.7,40.08a.47.47,0,0,1-.76.53Zm22.54,0h42.52l-20.84,50.67a.44.44,0,0,1-.83,0Zm31,40.08,18.7-40.08h15.32l-33.26,40.59a.46.46,0,0,1-.76-.51Z"/></g></g></svg>